<svg xmlns="http://www.w3.org/2000/svg" viewBox="0 0 448 448"><g class="open"><path d="M442 82H6c-3.3 0-6-2.7-6-6V52c0-3.3 2.7-6 6-6h436c3.3 0 6 2.7 6 6v24c0 3.3-2.7 6-6 6zm0 160H6c-3.3 0-6-2.7-6-6v-24c0-3.3 2.7-6 6-6h436c3.3 0 6 2.7 6 6v24c0 3.3-2.7 6-6 6zm0 160H6c-3.3 0-6-2.7-6-6v-24c0-3.3 2.7-6 6-6h436c3.3 0 6 2.7 6 6v24c0 3.3-2.7 6-6 6z"></path></g><g class="close"><path d="M259.8 223l109.6-109.6L392 90.8c3.3-3.3 3.3-8.8 0-12.1l-24.2-24.2c-3.3-3.3-8.8-3.3-12.1 0L223.5 186.7 91.3 54.5c-3.3-3.3-8.8-3.3-12.1 0L55 78.7c-3.3 3.3-3.3 8.8 0 12.1L187.2 223 55 355.2c-3.3 3.3-3.3 8.8 0 12.1l24.2 24.2c3.3 3.3 8.8 3.3 12.1 0l132.2-132.2 109.6 109.6 22.6 22.6c3.3 3.3 8.8 3.3 12.1 0l24.2-24.2c3.3-3.3 3.3-8.8 0-12.1L259.8 223z"></path></g></svg>