<svg viewBox="0 0 288 48" xmlns="http://www.w3.org/2000/svg"><title>{{ site.name }}</title><g fill="#fff" fill-rule="evenodd"><path d="M2.4 2.4v43.2h283.2V2.4H2.4zM0 0h288v48H0V0z" fill-rule="nonzero"/><path d="M17.297 24.823v-4.646c0-4.119 0-4.858-.053-5.703-.053-.897-.264-1.32-1.135-1.504-.211-.053-.66-.08-.898-.08-.105 0-.211-.052-.211-.158 0-.158.132-.211.422-.211 1.188 0 2.772.079 2.984.079.58 0 2.112-.08 3.326-.08 3.3 0 4.488 1.11 4.91 1.506.581.554 1.32 1.742 1.32 3.141 0 3.749-2.745 6.283-6.494 6.283-.132 0-.422 0-.554-.026-.132 0-.29-.053-.29-.185 0-.211.158-.237.712-.237 2.56 0 4.567-1.875 4.567-4.304 0-.87-.079-2.64-1.478-4.065-1.4-1.426-3.01-1.32-3.617-1.32-.449 0-.898.053-1.135.158-.159.053-.211.238-.211.502v10.85c0 2.535 0 4.62.132 5.729.079.766.237 1.346 1.03 1.452.369.053.95.106 1.187.106.159 0 .211.079.211.158 0 .132-.132.211-.422.211-1.452 0-3.115-.079-3.247-.079-.08 0-1.743.08-2.535.08-.29 0-.422-.054-.422-.212 0-.08.053-.158.211-.158.238 0 .555-.053.792-.106.528-.106.66-.686.766-1.452.132-1.109.132-3.194.132-5.729zm11.894 5.175l5.465-14.045c.29-.74.396-.871.554-.871.238 0 .317.316.555.818.422.95 4.145 10.217 5.57 13.622.845 2.007 1.479 2.297 1.98 2.456.343.105.687.132.924.132.132 0 .29.052.29.184s-.263.185-.527.185c-.344 0-2.06 0-3.67-.053-.449-.026-.818-.026-.818-.158 0-.106.052-.106.158-.158.132-.053.37-.238.211-.608l-2.085-5.148c-.053-.105-.08-.132-.212-.132h-5.359c-.105 0-.185.053-.237.185l-1.32 3.59c-.212.555-.344 1.11-.344 1.505 0 .45.396.608.792.608h.212c.184 0 .237.079.237.184 0 .132-.132.185-.343.185-.554 0-1.822-.079-2.086-.079-.237 0-1.399.08-2.35.08-.29 0-.448-.054-.448-.186 0-.105.106-.184.211-.184a6.5 6.5 0 0 0 .687-.053c1.056-.132 1.504-.924 1.953-2.06zm3.353-4.7h4.7c.105 0 .105-.052.078-.158l-2.296-6.151c-.132-.343-.264-.343-.396 0l-2.165 6.151c-.027.106 0 .158.079.158zm17.16-3.3v4.013c0 3.3.053 4.647.475 5.043.37.37 1.267.528 3.089.528 1.214 0 2.244-.027 2.798-.687.29-.343.476-.818.555-1.267.026-.158.105-.29.237-.29.106 0 .159.105.159.343 0 .237-.159 1.584-.343 2.244-.159.528-.238.607-1.479.607-1.663 0-2.957-.026-4.039-.08-1.056-.026-1.848-.052-2.534-.052-.106 0-.502 0-.95.026-.476.027-.978.053-1.347.053-.238 0-.37-.053-.37-.185 0-.079.053-.184.185-.184.211 0 .502-.053.713-.106.449-.106.501-.528.607-1.188.132-.924.132-2.693.132-4.858v-3.96c0-3.484 0-4.118-.053-4.83-.053-.766-.185-1.136-.95-1.242a7.476 7.476 0 0 0-.792-.052c-.08 0-.185-.106-.185-.185 0-.132.106-.185.37-.185 1.056 0 2.508.053 2.64.053.105 0 1.848-.053 2.56-.053.238 0 .37.053.37.185 0 .079-.106.158-.185.158-.158 0-.501.027-.765.053-.687.132-.819.475-.872 1.267-.026.713-.026 1.347-.026 4.831zm14.124 0v4.013c0 3.3.053 4.647.475 5.043.37.37 1.267.528 3.089.528 1.214 0 2.244-.027 2.798-.687.29-.343.476-.818.555-1.267.026-.158.105-.29.237-.29.106 0 .159.105.159.343 0 .237-.159 1.584-.343 2.244-.159.528-.238.607-1.479.607-1.663 0-2.957-.026-4.039-.08-1.056-.026-1.848-.052-2.534-.052-.106 0-.502 0-.95.026-.476.027-.978.053-1.347.053-.238 0-.37-.053-.37-.185 0-.079.053-.184.185-.184.211 0 .502-.053.713-.106.449-.106.501-.528.607-1.188.132-.924.132-2.693.132-4.858v-3.96c0-3.484 0-4.118-.053-4.83-.053-.766-.185-1.136-.95-1.242a7.476 7.476 0 0 0-.792-.052c-.08 0-.185-.106-.185-.185 0-.132.106-.185.37-.185 1.056 0 2.508.053 2.64.053.105 0 1.848-.053 2.56-.053.238 0 .37.053.37.185 0 .079-.106.158-.185.158-.158 0-.501.027-.765.053-.687.132-.819.475-.872 1.267-.026.713-.026 1.347-.026 4.831zm39.072-9.134l1.769 16.21c.105.95.29 2.428 1.425 2.798.766.238 1.452.238 1.716.238.132 0 .212.026.212.132 0 .158-.238.237-.555.237-.58 0-3.432-.079-4.409-.158-.607-.053-.739-.132-.739-.264 0-.106.053-.159.185-.185.132-.026.158-.475.106-.95l-1.268-13.623h-.079l-6.468 13.728c-.554 1.162-.633 1.4-.871 1.4-.185 0-.317-.265-.818-1.215-.687-1.294-2.957-5.86-3.09-6.125-.237-.475-3.194-6.811-3.484-7.524h-.106l-1.056 12.25c-.026.422-.026.897-.026 1.346 0 .396.29.74.686.819.45.105.845.132 1.004.132.105 0 .21.052.21.132 0 .184-.158.237-.474.237-.977 0-2.244-.079-2.456-.079-.237 0-1.504.08-2.217.08-.264 0-.449-.054-.449-.238 0-.08.132-.132.264-.132.211 0 .396 0 .792-.08.871-.158.95-1.188 1.056-2.19l1.9-17.214c.027-.29.133-.475.291-.475.159 0 .264.106.396.396l8.079 16.606 7.761-16.58c.106-.237.211-.422.396-.422.185 0 .264.211.317.713zm9.094 17.134l5.464-14.045c.29-.74.396-.871.555-.871.237 0 .317.316.554.818.423.95 4.145 10.217 5.57 13.622.845 2.007 1.479 2.297 1.98 2.456.344.105.687.132.925.132.132 0 .29.052.29.184s-.264.185-.528.185c-.343 0-2.06 0-3.67-.053-.448-.026-.818-.026-.818-.158 0-.106.053-.106.158-.158.132-.053.37-.238.212-.608l-2.086-5.148c-.053-.105-.08-.132-.211-.132h-5.36c-.105 0-.184.053-.237.185l-1.32 3.59c-.211.555-.343 1.11-.343 1.505 0 .45.396.608.792.608h.211c.185 0 .238.079.238.184 0 .132-.132.185-.344.185-.554 0-1.821-.079-2.085-.079-.238 0-1.4.08-2.35.08-.29 0-.449-.054-.449-.186 0-.105.106-.184.212-.184a6.5 6.5 0 0 0 .686-.053c1.056-.132 1.505-.924 1.954-2.06zm3.352-4.7h4.7c.105 0 .105-.052.079-.158l-2.297-6.151c-.132-.343-.264-.343-.396 0l-2.165 6.151c-.026.106 0 .158.08.158zm17.16-3.3v4.013c0 3.3.053 4.647.476 5.043.37.37 1.267.528 3.088.528 1.215 0 2.244-.027 2.799-.687.29-.343.475-.818.554-1.267.027-.158.106-.29.238-.29.105 0 .158.105.158.343 0 .237-.158 1.584-.343 2.244-.158.528-.238.607-1.478.607-1.664 0-2.957-.026-4.04-.08-1.056-.026-1.848-.052-2.534-.052-.106 0-.502 0-.95.026-.476.027-.977.053-1.347.053-.237 0-.37-.053-.37-.185 0-.079.053-.184.185-.184.212 0 .502-.053.713-.106.449-.106.502-.528.607-1.188.132-.924.132-2.693.132-4.858v-3.96c0-3.484 0-4.118-.052-4.83-.053-.766-.185-1.136-.95-1.242a7.476 7.476 0 0 0-.793-.052c-.079 0-.185-.106-.185-.185 0-.132.106-.185.37-.185 1.056 0 2.508.053 2.64.053.106 0 1.848-.053 2.56-.053.238 0 .37.053.37.185 0 .079-.105.158-.184.158-.159 0-.502.027-.766.053-.686.132-.818.475-.871 1.267-.027.713-.027 1.347-.027 4.831zm14.124 0v4.013c0 3.3.053 4.647.476 5.043.37.37 1.267.528 3.088.528 1.215 0 2.244-.027 2.799-.687.29-.343.475-.818.554-1.267.027-.158.106-.29.238-.29.105 0 .158.105.158.343 0 .237-.158 1.584-.343 2.244-.158.528-.238.607-1.478.607-1.664 0-2.957-.026-4.04-.08-1.056-.026-1.848-.052-2.534-.052-.106 0-.502 0-.95.026-.476.027-.977.053-1.347.053-.237 0-.37-.053-.37-.185 0-.079.053-.184.185-.184.212 0 .502-.053.713-.106.449-.106.502-.528.607-1.188.132-.924.132-2.693.132-4.858v-3.96c0-3.484 0-4.118-.052-4.83-.053-.766-.185-1.136-.95-1.242a7.476 7.476 0 0 0-.793-.052c-.079 0-.185-.106-.185-.185 0-.132.106-.185.37-.185 1.056 0 2.508.053 2.64.053.106 0 1.848-.053 2.56-.053.238 0 .37.053.37.185 0 .079-.105.158-.184.158-.159 0-.502.027-.766.053-.686.132-.818.475-.871 1.267-.027.713-.027 1.347-.027 4.831zm21.2 2.825v-4.646c0-4.119 0-4.858-.053-5.703-.053-.897-.264-1.32-1.135-1.504-.212-.053-.66-.08-.898-.08-.106 0-.211-.052-.211-.158 0-.158.132-.211.422-.211 1.188 0 2.851.079 2.983.079.634 0 1.664-.08 2.878-.08 4.33 0 5.28 2.64 5.28 3.96 0 2.166-1.24 3.46-2.482 4.753 1.954.607 4.568 2.481 4.568 5.57 0 2.825-2.218 5.755-6.732 5.755-.29 0-1.136-.052-1.901-.079a38.615 38.615 0 0 0-1.61-.079c-.053 0-.502 0-1.057.026-.528 0-1.135.053-1.53.053-.291 0-.423-.053-.423-.211 0-.08.053-.158.211-.158.238 0 .554-.053.792-.106.528-.106.66-.686.766-1.452.132-1.109.132-3.194.132-5.729zm2.112-11.14v7.075c0 .184.052.237.184.29.159.026.634.106 1.61.106 1.48 0 1.849-.053 2.403-.687.555-.633.95-1.584.95-2.666 0-2.191-.976-4.541-3.563-4.541-.29 0-.845.026-1.268.132-.237.053-.316.132-.316.29zm0 8.368v1.505c0 2.033 0 5.306.026 5.702.08 1.294.08 1.664.898 2.06.712.343 1.848.396 2.323.396 1.425 0 3.722-.766 3.722-3.75 0-1.583-.528-3.88-2.56-5.28-.898-.606-1.558-.686-2.192-.765-.343-.053-1.663-.053-2.059-.053-.106 0-.158.053-.158.185zm13.332 7.947l5.464-14.045c.29-.74.396-.871.555-.871.237 0 .317.316.554.818.423.95 4.145 10.217 5.57 13.622.845 2.007 1.479 2.297 1.98 2.456.344.105.687.132.925.132.132 0 .29.052.29.184s-.264.185-.528.185c-.343 0-2.06 0-3.67-.053-.448-.026-.818-.026-.818-.158 0-.106.053-.106.158-.158.132-.053.37-.238.212-.608l-2.086-5.148c-.053-.105-.08-.132-.211-.132h-5.36c-.105 0-.184.053-.237.185l-1.32 3.59c-.211.555-.343 1.11-.343 1.505 0 .45.396.608.792.608h.211c.185 0 .238.079.238.184 0 .132-.132.185-.344.185-.554 0-1.821-.079-2.085-.079-.238 0-1.4.08-2.35.08-.29 0-.449-.054-.449-.186 0-.105.106-.184.212-.184a6.5 6.5 0 0 0 .686-.053c1.056-.132 1.505-.924 1.954-2.06zm3.352-4.7h4.7c.105 0 .105-.052.079-.158l-2.297-6.151c-.132-.343-.264-.343-.396 0l-2.165 6.151c-.026.106 0 .158.08.158zm15.048.66v-3.96c0-3.484 0-4.118-.052-4.83-.053-.766-.185-1.136-.95-1.242a7.476 7.476 0 0 0-.793-.052c-.079 0-.185-.106-.185-.185 0-.132.106-.185.37-.185 1.056 0 2.614.053 2.746.053.237 0 2.19-.053 2.904-.053 1.478 0 3.115.132 4.33.977.58.422 1.61 1.505 1.61 3.062 0 1.663-.687 3.274-2.852 5.122 1.901 2.376 3.512 4.409 4.858 5.808 1.24 1.267 2.006 1.478 2.587 1.557.449.08.687.08.819.08.132 0 .21.105.21.184 0 .132-.131.185-.554.185h-1.452c-1.32 0-1.9-.132-2.481-.449-1.003-.528-1.848-1.61-3.168-3.3-.977-1.214-2.007-2.666-2.508-3.273-.106-.106-.159-.132-.317-.132l-2.957-.053c-.105 0-.158.053-.158.185v.528c0 2.165 0 3.907.105 4.831.08.66.212 1.082.924 1.188.317.053.819.106 1.03.106.158 0 .185.105.185.184 0 .106-.106.185-.37.185-1.267 0-2.745-.079-2.851-.079-.026 0-1.584.08-2.297.08-.237 0-.37-.054-.37-.186 0-.079.053-.184.185-.184.212 0 .502-.053.713-.106.449-.106.502-.528.607-1.188.132-.924.132-2.693.132-4.858zm2.007-9.266v7.207c0 .132.053.211.158.29.343.185 1.531.344 2.561.344.554 0 1.188-.027 1.742-.396.792-.528 1.4-1.716 1.4-3.432 0-2.799-1.532-4.409-4.013-4.409-.687 0-1.426.08-1.663.132-.106.053-.185.132-.185.264zm16.934 9.266v-3.96c0-3.484 0-4.118-.053-4.83-.052-.766-.184-1.189-.95-1.294a7.476 7.476 0 0 0-.792-.053c-.08 0-.185-.053-.185-.132 0-.132.106-.185.37-.185 1.056 0 2.56.053 2.693.053.554 0 1.636-.053 2.719-.053 3.88 0 4.884 2.244 4.884 3.432 0 1.769-1.162 2.878-2.35 3.934 1.769.528 4.092 2.138 4.092 4.672 0 2.508-1.874 4.99-5.834 4.99-.423 0-1.267-.026-2.007-.08-.739-.026-1.399-.052-1.504-.052-.053 0-.476.026-.95.026-.476.027-1.03.053-1.4.053-.238 0-.37-.053-.37-.185 0-.079.053-.132.185-.132.211 0 .502-.079.713-.105.449-.08.502-.581.607-1.241.132-.924.132-2.693.132-4.858zm2.007-9.398v5.914c0 .158.052.21.158.237.132.027.554.106 1.426.106 1.293 0 1.795-.053 2.27-.581.502-.554.898-1.32.898-2.402 0-1.716-.95-3.617-3.274-3.617-.264 0-.818.026-1.188.105-.211.053-.29.106-.29.238zm0 7.154v1.241c0 1.743 0 4.435.026 4.779.08 1.082.08 1.346.792 1.69.634.29 1.61.316 2.033.316 1.531 0 3.405-.58 3.405-3.458 0-1.004-.396-2.93-2.217-4.092-.792-.502-1.531-.476-2.086-.581-.29-.053-1.452-.053-1.821-.053-.08 0-.132.053-.132.158zm12.769 2.244v-3.96c0-3.484 0-4.118-.053-4.83-.053-.766-.185-1.136-.95-1.242a7.476 7.476 0 0 0-.792-.052c-.08 0-.185-.106-.185-.185 0-.132.105-.185.37-.185 1.055 0 2.56.053 2.692.053.159 0 5.016.026 5.544 0 .449-.027.871-.106 1.056-.132.106-.027.211-.106.317-.106.08 0 .106.106.106.211 0 .159-.132.423-.185 1.056-.027.212-.08 1.215-.132 1.479-.027.105-.106.237-.211.237-.132 0-.185-.105-.185-.29 0-.158-.027-.528-.132-.792-.159-.37-.396-.528-1.663-.686-.396-.053-3.09-.08-3.353-.08-.106 0-.132.08-.132.238v6.098c0 .159 0 .238.132.238.29 0 3.353 0 3.88-.053.555-.053.898-.079 1.136-.317.158-.158.264-.29.343-.29.08 0 .132.053.132.185s-.132.501-.185 1.24a21.855 21.855 0 0 0-.105 1.453c0 .184-.053.422-.212.422-.105 0-.158-.08-.158-.211 0-.211 0-.449-.106-.74-.079-.316-.29-.58-1.188-.686-.633-.079-3.115-.105-3.51-.105-.133 0-.16.079-.16.158v1.874c0 .766-.026 3.38 0 3.828.054 1.505.476 1.796 2.773 1.796.607 0 1.716 0 2.323-.238.607-.264.924-.66 1.056-1.558.053-.264.106-.343.238-.343s.158.185.158.343c0 .159-.185 1.69-.317 2.165-.158.581-.396.581-1.293.581-1.743 0-3.09-.053-4.04-.08-.976-.052-1.584-.052-1.927-.052-.053 0-.501 0-1.003.026-.449.027-.977.053-1.346.053-.238 0-.37-.053-.37-.185 0-.079.053-.184.185-.184.211 0 .501-.08.713-.106.448-.08.501-.528.607-1.188.132-.924.132-2.693.132-4.858zm12.788 0v-3.96c0-3.484 0-4.118-.053-4.83-.052-.766-.184-1.136-.95-1.242a7.476 7.476 0 0 0-.792-.052c-.08 0-.185-.106-.185-.185 0-.132.106-.185.37-.185 1.056 0 2.613.053 2.745.053.238 0 2.192-.053 2.904-.053 1.479 0 3.116.132 4.33.977.58.422 1.61 1.505 1.61 3.062 0 1.663-.686 3.274-2.85 5.122 1.9 2.376 3.51 4.409 4.857 5.808 1.24 1.267 2.006 1.478 2.587 1.557.449.08.686.08.818.08.132 0 .212.105.212.184 0 .132-.132.185-.555.185h-1.452c-1.32 0-1.9-.132-2.481-.449-1.004-.528-1.848-1.61-3.168-3.3-.977-1.214-2.007-2.666-2.508-3.273-.106-.106-.159-.132-.317-.132l-2.957-.053c-.106 0-.158.053-.158.185v.528c0 2.165 0 3.907.105 4.831.08.66.211 1.082.924 1.188.317.053.819.106 1.03.106.158 0 .185.105.185.184 0 .106-.106.185-.37.185-1.267 0-2.746-.079-2.851-.079-.027 0-1.584.08-2.297.08-.238 0-.37-.054-.37-.186 0-.079.053-.184.185-.184.211 0 .502-.053.713-.106.449-.106.502-.528.607-1.188.132-.924.132-2.693.132-4.858zm2.007-9.266v7.207c0 .132.052.211.158.29.343.185 1.531.344 2.56.344.555 0 1.189-.027 1.743-.396.792-.528 1.4-1.716 1.4-3.432 0-2.799-1.532-4.409-4.013-4.409-.687 0-1.426.08-1.664.132-.105.053-.184.132-.184.264zm18.122 16.078c-1.082 0-2.429-.159-3.38-.608-.316-.158-.342-.237-.342-.844 0-1.11.105-2.007.132-2.376 0-.238.052-.37.184-.37s.212.08.212.264c0 .185 0 .502.079.818.37 1.637 2.112 2.218 3.67 2.218 2.296 0 3.484-1.294 3.484-2.983 0-1.61-.871-2.376-2.93-3.907l-1.056-.792c-2.508-1.875-3.327-3.248-3.327-4.805 0-2.64 2.086-4.224 5.148-4.224.924 0 1.848.132 2.403.264.449.105.633.105.818.105.185 0 .238.027.238.159 0 .105-.106.845-.106 2.376 0 .343-.026.501-.185.501-.158 0-.184-.105-.21-.29-.027-.264-.212-.871-.344-1.109-.158-.264-.924-1.109-3.01-1.109-1.69 0-3.088.845-3.088 2.43 0 1.425.712 2.243 3.01 3.8l.66.45c2.824 1.927 3.8 3.484 3.8 5.412 0 1.32-.5 2.745-2.164 3.828-.977.633-2.429.792-3.696.792z"/></g></svg>