<svg version="1" xmlns="http://www.w3.org/2000/svg" width="682.667" height="682.667" viewBox="0 0 512 512"><path d="M0 256v256h512V0H0v256zm481 0v225H31V31h450v225z"/><path d="M43 256v213h426V43H43v213zm245.1-138.6c11 2 23.1 6.3 30.4 10.7 8.2 4.9 17.7 15.4 21.9 24.1 5.7 12 7 18.5 6.9 33.8 0 11.6-.4 14.7-2.7 22.5-11.3 37.7-46.7 61.7-89.1 60.3-9.3-.3-10-.4-10.3-2.4-.4-2.7 1.9-3.4 11.1-3.4 16.5 0 33.6-6.9 44.8-18.1 30.7-30.7 20.3-92-19-111.8-10.5-5.3-16.3-6.5-31.6-6.6-14.8 0-18.4.5-20.9 3.1-1.4 1.4-1.6 12.7-1.6 109.2 0 63.3.4 113.3 1 121.2 2 26.5 4.7 29.8 25.8 31.6 8.4.7 10.2 1.5 8.3 3.8-.8 1-10.4 1.2-45.8 1-24.7-.1-45.1-.2-45.5-.3-.5-.1-.8-.9-.8-2 0-1.5 1-1.9 6-2.4 17.2-1.8 18.6-5.6 20-54.2 1.1-37.6 1.1-138.8.1-176-.6-23.6-.9-26.4-2.9-30.8-1.8-4.1-2.9-5.1-7.5-7.2-3.4-1.6-8.2-2.7-13.1-3.1-4.2-.4-7.9-1.1-8.2-1.6-2-3.1 1.3-3.3 57.8-3.2 47.2.1 57.7.4 64.9 1.8z"/></svg>